<svg width="2500" height="1533" viewBox="0 0 2500 1533" fill="none" xmlns="http://www.w3.org/2000/svg">
<g clip-path="url(#clip0_0_1)">
<path d="M1235.89 1528.58C1227.43 1528.58 1219.53 1526.32 1212.19 1522.37L1137.15 1477.8C1125.86 1471.59 1131.5 1469.33 1134.89 1468.2C1150.13 1463.13 1152.95 1461.99 1168.75 1452.97C1170.44 1451.84 1172.7 1452.41 1174.39 1453.53L1231.95 1487.95C1234.2 1489.08 1237.02 1489.08 1238.71 1487.95L1463.85 1357.61C1466.11 1356.48 1467.24 1354.22 1467.24 1351.4V1091.28C1467.24 1088.45 1466.11 1086.2 1463.85 1085.07L1238.71 955.293C1236.46 954.161 1233.63 954.161 1231.95 955.293L1006.8 1085.07C1004.55 1086.2 1003.42 1089.02 1003.42 1091.28V1351.4C1003.42 1353.66 1004.55 1356.48 1006.8 1357.61L1068.31 1393.16C1101.6 1410.08 1122.48 1390.33 1122.48 1370.58V1113.85C1122.48 1110.46 1125.3 1107.07 1129.25 1107.07H1158.02C1161.41 1107.07 1164.8 1109.9 1164.8 1113.85V1370.58C1164.8 1415.16 1140.53 1441.12 1098.21 1441.12C1085.24 1441.12 1075.08 1441.12 1046.3 1427.01L987.056 1393.16C972.385 1384.69 963.358 1368.89 963.358 1351.96V1091.84C963.358 1074.92 972.385 1059.11 987.056 1050.65L1212.19 920.308C1226.3 912.408 1245.49 912.408 1259.59 920.308L1484.73 1050.65C1499.4 1059.11 1508.43 1074.92 1508.43 1091.84V1351.96C1508.43 1368.89 1499.4 1384.69 1484.73 1393.16L1259.59 1523.5C1252.26 1526.89 1243.79 1528.58 1235.89 1528.58ZM1305.3 1349.71C1206.55 1349.71 1186.24 1304.57 1186.24 1266.2C1186.24 1262.81 1189.06 1259.43 1193.01 1259.43H1222.35C1225.74 1259.43 1228.56 1261.68 1228.56 1265.07C1233.07 1294.97 1246.05 1309.65 1305.86 1309.65C1353.26 1309.65 1373.58 1298.92 1373.58 1273.53C1373.58 1258.86 1367.93 1248.15 1294.01 1240.81C1232.51 1234.6 1194.14 1221.06 1194.14 1171.97C1194.14 1126.26 1232.51 1099.18 1296.83 1099.18C1369.06 1099.18 1404.61 1124.01 1409.12 1178.17C1409.12 1179.87 1408.56 1181.56 1407.43 1183.25C1406.3 1184.38 1404.61 1185.51 1402.91 1185.51H1373.57C1370.75 1185.51 1367.93 1183.25 1367.37 1180.43C1360.6 1149.4 1343.1 1139.24 1296.83 1139.24C1244.92 1139.24 1238.71 1157.3 1238.71 1170.84C1238.71 1187.2 1246.05 1192.28 1316.02 1201.31C1385.42 1210.34 1418.15 1223.31 1418.15 1271.84C1417.59 1321.49 1376.96 1349.71 1305.3 1349.71Z" fill="#539E43"/>
<path d="M537.341 511.221C537.341 501.066 531.697 491.468 522.67 486.391L283.424 348.714C279.469 346.453 274.958 345.325 270.447 344.759H268.187C263.676 344.759 259.16 346.453 255.21 348.714L15.9644 486.391C6.93236 491.468 1.29346 501.062 1.29346 511.221L1.85979 881.372C1.85979 886.45 4.68168 891.527 9.1928 893.788C13.7088 896.61 19.3477 896.61 23.3023 893.788L165.495 812.534C174.522 807.456 180.166 797.863 180.166 787.708V614.479C180.166 604.324 185.805 594.731 194.837 589.653L255.21 554.668C259.726 551.846 264.803 550.713 269.881 550.713C274.958 550.713 280.036 551.846 283.99 554.668L344.363 589.653C353.395 594.731 359.034 604.319 359.034 614.479V787.708C359.034 797.863 364.678 807.456 373.705 812.534L515.898 893.788C520.414 896.61 526.053 896.61 530.569 893.788C535.085 891.527 537.907 886.45 537.907 881.372L537.341 511.221ZM1687.3 1.69411C1682.79 -0.566331 1677.15 -0.566331 1673.19 1.69411C1668.68 4.516 1665.86 9.02712 1665.86 14.1046V380.877C1665.86 384.261 1664.17 387.644 1660.78 389.904C1657.4 391.594 1654.01 391.594 1650.63 389.904L1590.81 355.485C1586.43 352.988 1581.47 351.675 1576.42 351.675C1571.38 351.675 1566.42 352.988 1562.03 355.485L1322.79 493.729C1313.76 498.806 1308.12 508.399 1308.12 518.554V794.475C1308.12 804.63 1313.76 814.228 1322.79 819.305L1562.03 957.549C1566.42 960.046 1571.38 961.358 1576.42 961.358C1581.47 961.358 1586.43 960.046 1590.81 957.549L1830.06 819.305C1839.09 814.228 1844.73 804.635 1844.73 794.475V106.646C1844.73 95.9248 1839.09 86.3362 1830.06 81.2539L1687.3 1.69411ZM1665.3 703.632C1665.3 706.454 1664.17 708.71 1661.91 709.838L1580.09 757.234C1578.95 757.791 1577.7 758.081 1576.42 758.081C1575.15 758.081 1573.9 757.791 1572.76 757.234L1490.94 709.838C1488.68 708.71 1487.55 705.888 1487.55 703.632V608.835C1487.55 606.013 1488.68 603.758 1490.94 602.63L1572.76 555.229C1573.9 554.672 1575.15 554.382 1576.42 554.382C1577.7 554.382 1578.95 554.672 1580.09 555.229L1661.91 602.63C1664.17 603.753 1665.3 606.58 1665.3 608.835V703.632ZM2483.47 606.58C2492.5 601.502 2497.58 591.909 2497.58 581.749V514.605C2497.58 504.45 2491.94 494.856 2483.47 489.779L2245.92 352.102C2241.53 349.606 2236.58 348.294 2231.53 348.294C2226.49 348.294 2221.53 349.606 2217.14 352.102L1977.9 490.34C1968.86 495.418 1963.23 505.011 1963.23 515.171V791.091C1963.23 801.246 1968.86 810.84 1977.9 815.917L2215.45 951.339C2224.48 956.416 2235.2 956.416 2243.66 951.339L2387.54 871.222C2392.06 868.962 2394.88 863.884 2394.88 858.807C2394.88 853.73 2392.06 848.652 2387.54 846.392L2147.17 708.148C2142.66 705.331 2139.84 700.815 2139.84 695.738V609.407C2139.84 604.329 2142.66 599.252 2147.17 596.991L2222.22 554.106C2224.42 552.724 2226.96 551.99 2229.56 551.99C2232.15 551.99 2234.69 552.724 2236.89 554.106L2311.93 596.991C2316.45 599.813 2319.27 604.324 2319.27 609.407V677.117C2319.27 682.195 2322.09 687.272 2326.61 689.528C2331.12 692.35 2336.76 692.35 2341.28 689.528L2483.47 606.58Z" fill="white"/>
<path d="M2227.86 593.603C2228.7 593.052 2229.68 592.758 2230.68 592.758C2231.69 592.758 2232.67 593.052 2233.5 593.603L2279.21 620.123C2280.9 621.246 2282.03 622.94 2282.03 625.2V678.24C2282.03 680.496 2280.9 682.19 2279.21 683.318L2233.5 709.838C2232.67 710.389 2231.69 710.683 2230.68 710.683C2229.68 710.683 2228.7 710.389 2227.86 709.838L2182.16 683.318C2180.46 682.19 2179.33 680.496 2179.33 678.24V625.2C2179.33 622.94 2180.46 621.246 2182.16 620.123L2227.86 593.603Z" fill="#539E43"/>
<path d="M937.4 353.23C933.015 350.734 928.057 349.421 923.012 349.421C917.967 349.421 913.009 350.734 908.624 353.23L671.073 490.335C662.041 495.413 656.963 505.006 656.963 515.161V789.959C656.963 800.114 662.607 809.707 671.073 814.785L908.624 951.9C913.009 954.396 917.967 955.708 923.012 955.708C928.057 955.708 933.015 954.396 937.4 951.9L1174.96 814.785C1183.98 809.707 1189.07 800.114 1189.07 789.959V515.166C1189.07 505.011 1183.42 495.418 1174.96 490.34L937.4 353.23Z" fill="url(#paint0_linear_0_1)"/>
</g>
<defs>
<linearGradient id="paint0_linear_0_1" x1="36940" y1="10951.6" x2="10902" y2="51864.9" gradientUnits="userSpaceOnUse">
<stop stop-color="#41873F"/>
<stop offset="0.3288" stop-color="#418B3D"/>
<stop offset="0.6352" stop-color="#419637"/>
<stop offset="0.9319" stop-color="#3FA92D"/>
<stop offset="1" stop-color="#3FAE2A"/>
</linearGradient>
<clipPath id="clip0_0_1">
<rect width="2500" height="1533" fill="white"/>
</clipPath>
</defs>
</svg>
